<svg width="512" height="220" viewBox="0 0 512 220" fill="none" xmlns="http://www.w3.org/2000/svg" role="img" aria-labelledby="title desc">
  <title id="title">Inventory Full Dino Silhouette</title>
  <desc id="desc">A small playful theropod dinosaur silhouette for the Inventory Full footer easter egg.</desc>
  <g fill="currentColor" color="#0A0A0F">
    <!-- Tail -->
    <path d="M47.8 115.4C20.8 102.2 7.1 88.1 2.4 82.4c-2-2.4-.4-6.1 2.7-6.3 23.6-1.3 61.1 7.5 99.2 31.2 8.5 5.3 10.2 16.9 3.5 24.3-5.2 5.8-13.8 7.2-20.7 3.4l-39.3-19.6Z"/>

    <!-- Body -->
    <path d="M94.6 103.8c21.7-17.4 54.9-30.5 93.6-28.7 43.2 2 79.1 19.7 101.1 45.2 12.7 14.7 10.2 36.9-5.5 48.2-30.6 21.9-79.7 29.4-126.9 17.5-31.1-7.9-55.8-24.4-70.2-45.2-8-11.6-3.1-28.2 7.9-37Z"/>

    <!-- Chest / neck -->
    <path d="M253.7 103.3c13.1-21.9 35.8-42.1 68.9-49.5 25.6-5.7 49-1.7 66.5 7.4 7.7 4 8.7 14.6 1.9 20l-33.9 27c-10 8-23.1 10.9-35.6 7.8l-57-14.3c-5.1-1.3-8.9-5.3-10.8-9.7Z"/>

    <!-- Head -->
    <path d="M356.1 44.4c21.8-11.1 48.7-12.9 75.7-3.1 18.5 6.7 33.5 18.1 42.4 30.4 2.9 4 1.3 9.6-3.2 11.5l-35.6 15.1c-13.1 5.6-28.3 4-39.9-4.3l-37.9-27.1c-8.8-6.3-11.1-17.6-1.5-22.5Z"/>

    <!-- Snout and jaw -->
    <path d="M424.9 74.5c30.7-3.4 55.8.5 76.5 11.1 5.4 2.8 5.1 10.7-.5 13.1-20.2 8.7-48.5 10.3-80.5 3.4-9.5-2-15.9-10.9-14.7-20.4.6-5.1 8.1-6 19.2-7.2Z"/>
    <path d="M404.1 95.9c29.9 7.7 55.9 10.4 78.1 7.8 5-.6 7.9 5.4 4.5 9.2-13.8 15.3-44.7 19.1-75.9 4.8-10.2-4.7-15.5-13.6-13.6-18.6.9-2.4 3.2-4.1 6.9-3.2Z"/>

    <!-- Eye cutout simulated by transparent hole with page-friendly knockout -->
    <circle cx="398" cy="61" r="4.8" fill="transparent"/>

    <!-- Back spikes -->
    <path d="M188.8 75.8l-3.2-27.6c-.5-4.2 4.6-6.8 7.7-3.9l24.7 23.1-29.2 8.4Z"/>
    <path d="M146.3 79.9l-16.5-22.4c-2.5-3.4.7-8 4.8-6.9l32.5 9.1-20.8 20.2Z"/>
    <path d="M226.7 82.8l10.7-24.3c1.8-4.1 7.8-3.5 8.8.9l6.5 27.1-26-3.7Z"/>

    <!-- Arms -->
    <path d="M286.2 121.5c14.5 6.1 27.1 16.5 34.2 29.3 2.9 5.2-1.6 11.1-7.4 9.7-16.1-4-31.6-13.3-44.4-25.8-6.1-6-4.5-16.5 3-20.5 4.4-2.3 9.9-1.3 14.6 7.3Z"/>
    <path d="M300.2 137.4c8.5 1.6 16.2 6 22 12.5 2.1 2.4-.1 6.1-3.2 5.4-10.4-2.2-20-6.8-28.2-13.5-2.2-1.8-.9-5.1 1.9-5l7.5.6Z"/>

    <!-- Front leg -->
    <path d="M243.4 164.5c10.4 3.8 16.9 14.2 15.6 25.2l-2.7 22.2c-.5 4.2-4.1 7.3-8.3 7.1l-31.7-1.4c-5.9-.3-8.8-7.3-4.8-11.6l14.1-15.2c3.4-3.6 5-8.6 4.5-13.5l-1.1-9.4c-.6-5 5.1-8.7 14.4-3.4Z"/>
    <path d="M220.4 204.6h42.7c4.6 0 8.4 3.8 8.4 8.4 0 3.6-2.4 6.8-5.8 7.9-14.4 4.4-33.8 3.5-51-1.1-3.6-1-5.5-5-3.8-8.4 1.8-3.9 5.2-6.8 9.5-6.8Z"/>

    <!-- Back leg -->
    <path d="M154.5 160.6c14.1 2.9 25.6 13.3 30 27l5.4 16.8c1.3 4.2-1.3 8.6-5.6 9.4l-35.2 6.5c-5.7 1.1-9.7-5.7-6-10.2l11.9-14.4c3.7-4.4 5-10.4 3.5-16l-4.3-16.3c-.4-1.5-.3-2.4.3-2.8Z"/>
    <path d="M147 207.8l46.3-8.1c4.6-.8 9.1 2.3 9.9 6.9.6 3.8-1.3 7.5-4.9 9.1-13.9 6.2-34.9 8.9-53.5 6.8-4-.5-6.4-4.6-4.8-8.3 1.4-3.4 3.7-5.8 7-6.4Z"/>

    <!-- Feet / ground shadow -->
    <path opacity="0.2" d="M117 214c55.6-6.7 135.3-6.4 183.4 0 8.8 1.2 8.4 4.2-.6 5.2-52.5 5.8-136 6-184.3.2-8.7-1-7.2-4.4 1.5-5.4Z"/>
  </g>
</svg>
