<?xml version="1.0" encoding="UTF-8"?>
<svg width="256" height="256" viewBox="0 0 256 256" fill="none" xmlns="http://www.w3.org/2000/svg">
  <defs>
    <linearGradient id="tealStroke" x1="54" y1="188" x2="186" y2="94" gradientUnits="userSpaceOnUse">
      <stop offset="0" stop-color="#36D6D8"/>
      <stop offset="0.42" stop-color="#5EEAD4"/>
      <stop offset="1" stop-color="#98FFF4"/>
    </linearGradient>
    <linearGradient id="tealHead" x1="74" y1="92" x2="104" y2="128" gradientUnits="userSpaceOnUse">
      <stop offset="0" stop-color="#B3FFF7"/>
      <stop offset="0.45" stop-color="#6DF2DF"/>
      <stop offset="1" stop-color="#36D1CE"/>
    </linearGradient>
    <filter id="softShadow" x="-20%" y="-20%" width="140%" height="150%">
      <feDropShadow dx="0" dy="8" stdDeviation="5" flood-color="#02060d" flood-opacity="0.28"/>
    </filter>
  </defs>
  <g filter="url(#softShadow)">
    <path d="M44 178 C74 178 86 170 104 160 C126 148 140 150 156 166 C170 180 182 184 206 184" stroke="#17324d" stroke-width="30" stroke-linecap="round" stroke-linejoin="round"/>
    <path d="M44 178 C74 178 86 170 104 160 C126 148 140 150 156 166 C170 180 182 184 206 184" stroke="url(#tealStroke)" stroke-width="18" stroke-linecap="round" stroke-linejoin="round"/>
    <path d="M54 171 C82 171 89 164 106 154" stroke="#D9FFFF" stroke-width="6" stroke-linecap="round" opacity="0.8"/>

    <circle cx="90" cy="110" r="20" fill="url(#tealHead)" stroke="#17324d" stroke-width="10"/>
    <ellipse cx="84" cy="102" rx="7" ry="5" fill="#FFFFFF" opacity="0.62"/>
    <path d="M102 120 C112 128 120 134 132 138 C147 143 157 141 171 130" stroke="#17324d" stroke-width="28" stroke-linecap="round" stroke-linejoin="round"/>
    <path d="M102 120 C112 128 120 134 132 138 C147 143 157 141 171 130" stroke="url(#tealStroke)" stroke-width="16" stroke-linecap="round" stroke-linejoin="round"/>
    <path d="M168 132 C178 140 182 151 186 162" stroke="#17324d" stroke-width="28" stroke-linecap="round" stroke-linejoin="round"/>
    <path d="M168 132 C178 140 182 151 186 162" stroke="url(#tealStroke)" stroke-width="16" stroke-linecap="round" stroke-linejoin="round"/>
    <path d="M120 130 C135 118 149 110 164 110" stroke="#17324d" stroke-width="24" stroke-linecap="round" stroke-linejoin="round"/>
    <path d="M120 130 C135 118 149 110 164 110" stroke="url(#tealStroke)" stroke-width="14" stroke-linecap="round" stroke-linejoin="round"/>
    <path d="M102 121 C112 124 118 127 126 129" stroke="#E7FFFF" stroke-width="5" stroke-linecap="round" opacity="0.85"/>
    <path d="M123 126 C138 115 147 112 158 112" stroke="#E7FFFF" stroke-width="4" stroke-linecap="round" opacity="0.7"/>
  </g>
</svg>
