<?xml version="1.0" encoding="UTF-8"?>
<svg width="256" height="256" viewBox="0 0 256 256" fill="none" xmlns="http://www.w3.org/2000/svg">
  <defs>
    <linearGradient id="bg1" x1="40" y1="32" x2="160" y2="188" gradientUnits="userSpaceOnUse">
      <stop offset="0" stop-color="#B7C3D0"/>
      <stop offset="0.5" stop-color="#90A0B3"/>
      <stop offset="1" stop-color="#6D7B8C"/>
    </linearGradient>
    <linearGradient id="bg2" x1="60" y1="40" x2="184" y2="196" gradientUnits="userSpaceOnUse">
      <stop offset="0" stop-color="#C3CDD8"/>
      <stop offset="0.48" stop-color="#98A8BA"/>
      <stop offset="1" stop-color="#788596"/>
    </linearGradient>
    <linearGradient id="bg3" x1="76" y1="52" x2="206" y2="206" gradientUnits="userSpaceOnUse">
      <stop offset="0" stop-color="#D1D9E1"/>
      <stop offset="0.45" stop-color="#A3B0C0"/>
      <stop offset="1" stop-color="#7D8896"/>
    </linearGradient>
    <linearGradient id="spine" x1="0" y1="0" x2="1" y2="1">
      <stop offset="0" stop-color="#728296"/>
      <stop offset="1" stop-color="#516172"/>
    </linearGradient>
    <filter id="softShadow" x="-20%" y="-20%" width="140%" height="150%">
      <feDropShadow dx="0" dy="8" stdDeviation="5" flood-color="#02060d" flood-opacity="0.30"/>
    </filter>
  </defs>
  <g filter="url(#softShadow)">
    <g transform="translate(118 106) rotate(-10)">
      <rect x="-72" y="-60" width="108" height="136" rx="18" fill="url(#bg1)" stroke="#17324d" stroke-width="10"/>
      <rect x="-62" y="-48" width="14" height="112" rx="5" fill="url(#spine)" opacity="0.95"/>
      <path d="M-54 -44 H20" stroke="#EAF2F7" stroke-width="8" stroke-linecap="round" opacity="0.95"/>
      <path d="M-52 -30 H10" stroke="#DDE8F0" stroke-width="6" stroke-linecap="round" opacity="0.55"/>
      <rect x="-60" y="-44" width="86" height="96" rx="12" fill="none" stroke="#D9E4ED" stroke-width="4" opacity="0.45"/>
      <ellipse cx="-24" cy="56" rx="40" ry="10" fill="#1E2B38" opacity="0.18"/>
    </g>
    <g transform="translate(132 118) rotate(-10)">
      <rect x="-72" y="-60" width="108" height="136" rx="18" fill="url(#bg2)" stroke="#17324d" stroke-width="10"/>
      <rect x="-62" y="-48" width="14" height="112" rx="5" fill="url(#spine)" opacity="0.95"/>
      <path d="M-54 -44 H20" stroke="#F6FBFF" stroke-width="8" stroke-linecap="round" opacity="0.95"/>
      <path d="M-52 -30 H10" stroke="#E5EEF5" stroke-width="6" stroke-linecap="round" opacity="0.55"/>
      <rect x="-60" y="-44" width="86" height="96" rx="12" fill="none" stroke="#E3EDF5" stroke-width="4" opacity="0.45"/>
      <ellipse cx="-24" cy="56" rx="40" ry="10" fill="#1E2B38" opacity="0.18"/>
    </g>
    <g transform="translate(148 130) rotate(-10)">
      <rect x="-72" y="-60" width="108" height="136" rx="18" fill="url(#bg3)" stroke="#17324d" stroke-width="10"/>
      <rect x="-62" y="-48" width="14" height="112" rx="5" fill="url(#spine)" opacity="0.95"/>
      <path d="M-54 -44 H20" stroke="#FFFFFF" stroke-width="8" stroke-linecap="round" opacity="0.96"/>
      <path d="M-52 -30 H10" stroke="#EAF2F8" stroke-width="6" stroke-linecap="round" opacity="0.60"/>
      <rect x="-60" y="-44" width="86" height="96" rx="12" fill="none" stroke="#EDF5FB" stroke-width="4" opacity="0.52"/>
      <ellipse cx="-24" cy="56" rx="40" ry="10" fill="#1E2B38" opacity="0.18"/>
      <ellipse cx="18" cy="-36" rx="12" ry="7" fill="#FFFFFF" opacity="0.45" transform="rotate(-12 18 -36)"/>
    </g>
  </g>
</svg>
