<?xml version="1.0" encoding="UTF-8"?>
<svg width="256" height="256" viewBox="0 0 256 256" fill="none" xmlns="http://www.w3.org/2000/svg">
  <defs>
    <radialGradient id="rimGrad" cx="0" cy="0" r="1" gradientUnits="userSpaceOnUse" gradientTransform="translate(92 82) rotate(45) scale(140)">
      <stop offset="0" stop-color="#E2D8FF"/>
      <stop offset="0.35" stop-color="#BCA8FF"/>
      <stop offset="0.72" stop-color="#9D84F7"/>
      <stop offset="1" stop-color="#7158C8"/>
    </radialGradient>
    <radialGradient id="faceGrad" cx="0" cy="0" r="1" gradientUnits="userSpaceOnUse" gradientTransform="translate(104 92) rotate(45) scale(132)">
      <stop offset="0" stop-color="#3B2D63"/>
      <stop offset="0.55" stop-color="#261D43"/>
      <stop offset="1" stop-color="#120E22"/>
    </radialGradient>
    <linearGradient id="tickGrad" x1="72" y1="64" x2="184" y2="192" gradientUnits="userSpaceOnUse">
      <stop offset="0" stop-color="#F3EEFF"/>
      <stop offset="0.5" stop-color="#D9CCFF"/>
      <stop offset="1" stop-color="#B49BFF"/>
    </linearGradient>
    <filter id="softShadow" x="-20%" y="-20%" width="140%" height="150%">
      <feDropShadow dx="0" dy="8" stdDeviation="5" flood-color="#02060d" flood-opacity="0.32"/>
    </filter>
  </defs>
  <g filter="url(#softShadow)">
    <circle cx="128" cy="128" r="92" fill="url(#rimGrad)" stroke="#17324d" stroke-width="10"/>
    <circle cx="128" cy="128" r="68" fill="url(#faceGrad)" stroke="#372B62" stroke-width="8"/>
    <path d="M72 88 A80 80 0 0 1 106 58" stroke="#FFFFFF" stroke-width="10" stroke-linecap="round" opacity="0.55"/>
    <ellipse cx="166" cy="72" rx="12" ry="7" fill="#FFFFFF" opacity="0.35" transform="rotate(18 166 72)"/>

    <g stroke="url(#tickGrad)" stroke-width="8" stroke-linecap="round">
      <path d="M128 62 L128 74"/>
      <path d="M160.5 70.7 L155 80.2"/>
      <path d="M184.3 94.5 L174.8 100"/>
      <path d="M193 128 L181 128"/>
      <path d="M184.3 161.5 L174.8 156"/>
      <path d="M160.5 185.3 L155 175.8"/>
      <path d="M128 194 L128 182"/>
      <path d="M95.5 185.3 L101 175.8"/>
      <path d="M71.7 161.5 L81.2 156"/>
      <path d="M63 128 L75 128"/>
      <path d="M71.7 94.5 L81.2 100"/>
      <path d="M95.5 70.7 L101 80.2"/>
    </g>

    <circle cx="128" cy="128" r="13" fill="#E9DDFF" stroke="#17324d" stroke-width="7"/>
    <path d="M128 128 L128 92" stroke="#17324d" stroke-width="16" stroke-linecap="round"/>
    <path d="M128 128 L128 92" stroke="#F2E9FF" stroke-width="8" stroke-linecap="round"/>
    <path d="M128 128 L159 108" stroke="#17324d" stroke-width="16" stroke-linecap="round"/>
    <path d="M128 128 L159 108" stroke="#D8C6FF" stroke-width="8" stroke-linecap="round"/>
    <path d="M126 137 L108 164 L125 156 L140 166 L150 150 L138 148 Z" fill="#9A81F5" stroke="#17324d" stroke-width="8" stroke-linejoin="round" opacity="0.92"/>
  </g>
</svg>
