<?xml version="1.0" encoding="UTF-8"?>
<svg viewBox="0 0 16 16" shape-rendering="crispEdges" role="img" aria-label="skipNotInMood" style="display: block; image-rendering: pixelated;"><path d="M6 2h1v1h-1zM7 2h1v1h-1zM8 2h1v1h-1zM9 2h1v1h-1zM10 2h1v1h-1zM11 2h1v1h-1zM6 3h1v1h-1zM7 3h1v1h-1zM8 3h1v1h-1zM9 3h1v1h-1zM10 3h1v1h-1zM11 3h1v1h-1zM9 4h1v1h-1zM10 4h1v1h-1zM8 5h1v1h-1zM9 5h1v1h-1zM7 6h1v1h-1zM8 6h1v1h-1zM6 7h1v1h-1zM7 7h1v1h-1zM5 8h1v1h-1zM6 8h1v1h-1zM7 8h1v1h-1zM8 8h1v1h-1zM9 8h1v1h-1zM10 8h1v1h-1zM5 9h1v1h-1zM6 9h1v1h-1zM7 9h1v1h-1zM8 9h1v1h-1zM9 9h1v1h-1zM10 9h1v1h-1zM3 10h1v1h-1zM4 10h1v1h-1zM5 10h1v1h-1zM6 10h1v1h-1zM2 11h1v1h-1zM3 11h1v1h-1zM4 11h1v1h-1zM5 11h1v1h-1zM2 12h1v1h-1zM3 12h1v1h-1zM1 13h1v1h-1zM2 13h1v1h-1zM0 14h1v1h-1zM1 14h1v1h-1zM2 14h1v1h-1zM3 14h1v1h-1zM0 15h1v1h-1zM1 15h1v1h-1zM2 15h1v1h-1zM3 15h1v1h-1z" fill="#6e658a"></path></svg>