<?xml version="1.0" encoding="UTF-8"?>
<svg viewBox="0 0 16 16" shape-rendering="crispEdges" role="img" aria-label="skipTooLong" style="display: block; image-rendering: pixelated;"><path d="M1 1h1v1h-1zM2 1h1v1h-1zM3 1h1v1h-1zM4 1h1v1h-1zM5 1h1v1h-1zM6 1h1v1h-1zM7 1h1v1h-1zM8 1h1v1h-1zM9 1h1v1h-1zM10 1h1v1h-1zM11 1h1v1h-1zM12 1h1v1h-1zM13 1h1v1h-1zM14 1h1v1h-1zM1 2h1v1h-1zM2 2h1v1h-1zM3 2h1v1h-1zM4 2h1v1h-1zM5 2h1v1h-1zM6 2h1v1h-1zM7 2h1v1h-1zM8 2h1v1h-1zM9 2h1v1h-1zM10 2h1v1h-1zM11 2h1v1h-1zM12 2h1v1h-1zM13 2h1v1h-1zM14 2h1v1h-1zM2 3h1v1h-1zM13 3h1v1h-1zM2 4h1v1h-1zM12 4h1v1h-1zM3 5h1v1h-1zM11 5h1v1h-1zM4 6h1v1h-1zM10 6h1v1h-1zM5 7h1v1h-1zM9 7h1v1h-1zM5 8h1v1h-1zM9 8h1v1h-1zM4 9h1v1h-1zM10 9h1v1h-1zM3 10h1v1h-1zM11 10h1v1h-1zM2 11h1v1h-1zM13 11h1v1h-1zM2 12h1v1h-1zM13 12h1v1h-1zM1 13h1v1h-1zM2 13h1v1h-1zM3 13h1v1h-1zM4 13h1v1h-1zM5 13h1v1h-1zM6 13h1v1h-1zM7 13h1v1h-1zM8 13h1v1h-1zM9 13h1v1h-1zM10 13h1v1h-1zM11 13h1v1h-1zM12 13h1v1h-1zM13 13h1v1h-1zM14 13h1v1h-1zM1 14h1v1h-1zM2 14h1v1h-1zM3 14h1v1h-1zM4 14h1v1h-1zM5 14h1v1h-1zM6 14h1v1h-1zM7 14h1v1h-1zM8 14h1v1h-1zM9 14h1v1h-1zM10 14h1v1h-1zM11 14h1v1h-1zM12 14h1v1h-1zM13 14h1v1h-1zM14 14h1v1h-1z" fill="#a39bb8"></path><path d="M3 3h1v1h-1zM4 3h1v1h-1zM5 3h1v1h-1zM6 3h1v1h-1zM7 3h1v1h-1zM8 3h1v1h-1zM9 3h1v1h-1zM10 3h1v1h-1zM11 3h1v1h-1zM12 3h1v1h-1zM3 4h1v1h-1zM4 4h1v1h-1zM5 4h1v1h-1zM6 4h1v1h-1zM7 4h1v1h-1zM8 4h1v1h-1zM9 4h1v1h-1zM10 4h1v1h-1zM11 4h1v1h-1zM4 5h1v1h-1zM5 5h1v1h-1zM6 5h1v1h-1zM7 5h1v1h-1zM8 5h1v1h-1zM9 5h1v1h-1zM10 5h1v1h-1zM5 6h1v1h-1zM6 6h1v1h-1zM7 6h1v1h-1zM8 6h1v1h-1zM9 6h1v1h-1zM6 7h1v1h-1zM8 7h1v1h-1zM6 8h1v1h-1zM8 8h1v1h-1zM5 9h1v1h-1zM9 9h1v1h-1zM4 10h1v1h-1zM10 10h1v1h-1zM3 11h1v1h-1zM12 11h1v1h-1z" fill="#e9e5ef"></path><path d="M7 7h1v1h-1zM7 8h1v1h-1zM6 9h1v1h-1zM7 9h1v1h-1zM8 9h1v1h-1zM5 10h1v1h-1zM6 10h1v1h-1zM7 10h1v1h-1zM8 10h1v1h-1zM9 10h1v1h-1zM4 11h1v1h-1zM5 11h1v1h-1zM6 11h1v1h-1zM7 11h1v1h-1zM8 11h1v1h-1zM9 11h1v1h-1zM10 11h1v1h-1zM11 11h1v1h-1zM3 12h1v1h-1zM4 12h1v1h-1zM5 12h1v1h-1zM6 12h1v1h-1zM7 12h1v1h-1zM8 12h1v1h-1zM9 12h1v1h-1zM10 12h1v1h-1zM11 12h1v1h-1zM12 12h1v1h-1z" fill="#f59e0b"></path></svg>