<?xml version="1.0" encoding="UTF-8"?>
<svg viewBox="0 0 16 16" shape-rendering="crispEdges" role="img" aria-label="statusPlayingNow" style="display: block; image-rendering: pixelated;"><path d="M1 1h1v1h-1zM2 1h1v1h-1zM3 1h1v1h-1zM4 1h1v1h-1zM5 1h1v1h-1zM6 1h1v1h-1zM7 1h1v1h-1zM8 1h1v1h-1zM9 1h1v1h-1zM10 1h1v1h-1zM11 1h1v1h-1zM12 1h1v1h-1zM13 1h1v1h-1zM14 1h1v1h-1zM1 2h1v1h-1zM14 2h1v1h-1zM1 3h1v1h-1zM14 3h1v1h-1zM1 4h1v1h-1zM2 4h1v1h-1zM3 4h1v1h-1zM4 4h1v1h-1zM5 4h1v1h-1zM6 4h1v1h-1zM7 4h1v1h-1zM8 4h1v1h-1zM9 4h1v1h-1zM10 4h1v1h-1zM11 4h1v1h-1zM12 4h1v1h-1zM13 4h1v1h-1zM14 4h1v1h-1z" fill="#6e658a"></path><path d="M2 2h1v1h-1zM3 2h1v1h-1zM4 2h1v1h-1zM5 2h1v1h-1zM6 2h1v1h-1zM7 2h1v1h-1zM8 2h1v1h-1zM9 2h1v1h-1zM10 2h1v1h-1zM11 2h1v1h-1zM12 2h1v1h-1zM13 2h1v1h-1z" fill="#0a0612"></path><path d="M2 6h1v1h-1zM3 6h1v1h-1zM4 6h1v1h-1zM5 6h1v1h-1zM6 6h1v1h-1zM7 6h1v1h-1zM8 6h1v1h-1zM9 6h1v1h-1zM10 6h1v1h-1zM11 6h1v1h-1zM12 6h1v1h-1zM13 6h1v1h-1zM2 7h1v1h-1zM13 7h1v1h-1zM2 8h1v1h-1zM13 8h1v1h-1zM2 9h1v1h-1zM13 9h1v1h-1zM2 10h1v1h-1zM13 10h1v1h-1zM2 11h1v1h-1zM13 11h1v1h-1zM2 12h1v1h-1zM13 12h1v1h-1zM2 13h1v1h-1zM13 13h1v1h-1zM2 14h1v1h-1zM3 14h1v1h-1zM6 14h1v1h-1zM7 14h1v1h-1zM10 14h1v1h-1zM11 14h1v1h-1zM13 14h1v1h-1zM2 15h1v1h-1zM3 15h1v1h-1zM6 15h1v1h-1zM7 15h1v1h-1zM10 15h1v1h-1zM11 15h1v1h-1zM13 15h1v1h-1z" fill="#7c5cff"></path><path d="M3 7h1v1h-1zM4 7h1v1h-1zM5 7h1v1h-1zM6 7h1v1h-1zM7 7h1v1h-1zM8 7h1v1h-1zM9 7h1v1h-1zM10 7h1v1h-1zM11 7h1v1h-1zM12 7h1v1h-1zM3 8h1v1h-1zM12 8h1v1h-1zM3 9h1v1h-1zM12 9h1v1h-1zM3 10h1v1h-1zM12 10h1v1h-1zM3 11h1v1h-1zM12 11h1v1h-1zM3 12h1v1h-1zM12 12h1v1h-1zM3 13h1v1h-1zM4 13h1v1h-1zM5 13h1v1h-1zM6 13h1v1h-1zM7 13h1v1h-1zM8 13h1v1h-1zM9 13h1v1h-1zM10 13h1v1h-1zM11 13h1v1h-1zM12 13h1v1h-1z" fill="#a78bfa"></path><path d="M4 8h1v1h-1zM5 8h1v1h-1zM6 8h1v1h-1zM7 8h1v1h-1zM8 8h1v1h-1zM9 8h1v1h-1zM10 8h1v1h-1zM11 8h1v1h-1zM4 9h1v1h-1zM8 9h1v1h-1zM9 9h1v1h-1zM10 9h1v1h-1zM11 9h1v1h-1zM4 10h1v1h-1zM10 10h1v1h-1zM11 10h1v1h-1zM4 11h1v1h-1zM8 11h1v1h-1zM9 11h1v1h-1zM10 11h1v1h-1zM11 11h1v1h-1zM4 12h1v1h-1zM5 12h1v1h-1zM6 12h1v1h-1zM7 12h1v1h-1zM8 12h1v1h-1zM9 12h1v1h-1zM10 12h1v1h-1zM11 12h1v1h-1z" fill="#e9e5ef"></path><path d="M5 9h1v1h-1zM6 9h1v1h-1zM7 9h1v1h-1zM5 10h1v1h-1zM6 10h1v1h-1zM7 10h1v1h-1zM8 10h1v1h-1zM9 10h1v1h-1zM5 11h1v1h-1zM6 11h1v1h-1zM7 11h1v1h-1z" fill="#f59e0b"></path></svg>