<?xml version="1.0" encoding="UTF-8"?>
<svg viewBox="0 0 16 16" shape-rendering="crispEdges" role="img" aria-label="brainoff" style="display: block; image-rendering: pixelated;"><path d="M14 2h1v1h-1zM12 3h1v1h-1zM13 3h1v1h-1zM14 3h1v1h-1zM13 4h1v1h-1z" fill="#a39bb8"></path><path d="M10 4h1v1h-1zM11 4h1v1h-1zM12 4h1v1h-1zM8 5h1v1h-1zM9 5h1v1h-1zM10 5h1v1h-1zM7 6h1v1h-1zM8 6h1v1h-1z" fill="#a78bfa"></path><path d="M5 7h1v1h-1zM6 7h1v1h-1zM7 7h1v1h-1zM8 7h1v1h-1zM4 8h1v1h-1zM5 8h1v1h-1zM8 8h1v1h-1zM9 8h1v1h-1zM4 9h1v1h-1zM9 9h1v1h-1zM4 10h1v1h-1zM5 10h1v1h-1zM8 10h1v1h-1zM9 10h1v1h-1zM6 11h1v1h-1zM7 11h1v1h-1zM6 12h1v1h-1zM7 12h1v1h-1zM6 13h1v1h-1zM7 13h1v1h-1zM8 13h1v1h-1zM9 13h1v1h-1z" fill="#6e658a"></path></svg>