<?xml version="1.0" encoding="UTF-8"?>
<svg viewBox="0 0 16 16" shape-rendering="crispEdges" role="img" aria-label="intense" style="display: block; image-rendering: pixelated;"><path d="M8 2h1v1h-1zM9 2h1v1h-1zM7 3h1v1h-1zM8 3h1v1h-1zM9 3h1v1h-1zM6 4h1v1h-1zM7 4h1v1h-1zM8 4h1v1h-1zM5 5h1v1h-1zM6 5h1v1h-1zM7 5h1v1h-1zM4 6h1v1h-1zM5 6h1v1h-1zM6 6h1v1h-1zM3 7h1v1h-1zM4 7h1v1h-1zM5 7h1v1h-1zM2 8h1v1h-1zM3 8h1v1h-1zM4 8h1v1h-1zM2 9h1v1h-1zM3 9h1v1h-1zM4 9h1v1h-1zM5 9h1v1h-1z" fill="#fbbf24"></path><path d="M9 4h1v1h-1zM8 5h1v1h-1zM9 5h1v1h-1zM7 6h1v1h-1zM8 6h1v1h-1zM9 6h1v1h-1zM6 7h1v1h-1zM7 7h1v1h-1zM8 7h1v1h-1zM5 8h1v1h-1zM6 8h1v1h-1zM7 8h1v1h-1zM8 8h1v1h-1zM9 8h1v1h-1zM10 8h1v1h-1zM11 8h1v1h-1zM6 9h1v1h-1zM7 9h1v1h-1zM8 9h1v1h-1zM9 9h1v1h-1zM10 9h1v1h-1zM4 10h1v1h-1zM5 10h1v1h-1zM6 10h1v1h-1zM7 10h1v1h-1zM8 10h1v1h-1zM4 11h1v1h-1zM5 11h1v1h-1zM6 11h1v1h-1zM7 11h1v1h-1zM5 12h1v1h-1zM6 12h1v1h-1zM7 12h1v1h-1zM5 13h1v1h-1zM6 13h1v1h-1zM6 14h1v1h-1z" fill="#f59e0b"></path></svg>