<?xml version="1.0" encoding="UTF-8"?>
<svg viewBox="0 0 16 16" shape-rendering="crispEdges" role="img" aria-label="retro" style="display: block; image-rendering: pixelated;"><path d="M7 2h1v1h-1zM6 3h1v1h-1zM5 4h1v1h-1z" fill="#e9e5ef"></path><path d="M4 5h1v1h-1zM5 5h1v1h-1zM6 5h1v1h-1zM7 5h1v1h-1zM8 5h1v1h-1zM9 5h1v1h-1zM10 5h1v1h-1zM11 5h1v1h-1zM12 5h1v1h-1zM13 5h1v1h-1zM3 6h1v1h-1zM14 6h1v1h-1zM3 7h1v1h-1zM14 7h1v1h-1zM3 8h1v1h-1zM14 8h1v1h-1zM3 9h1v1h-1zM14 9h1v1h-1zM3 10h1v1h-1zM14 10h1v1h-1zM3 11h1v1h-1zM14 11h1v1h-1zM3 12h1v1h-1zM14 12h1v1h-1zM3 13h1v1h-1zM4 13h1v1h-1zM5 13h1v1h-1zM6 13h1v1h-1zM7 13h1v1h-1zM8 13h1v1h-1zM9 13h1v1h-1zM10 13h1v1h-1zM11 13h1v1h-1zM12 13h1v1h-1zM13 13h1v1h-1zM14 13h1v1h-1z" fill="#44403c"></path><path d="M4 6h1v1h-1zM5 6h1v1h-1zM6 6h1v1h-1zM7 6h1v1h-1zM8 6h1v1h-1zM9 6h1v1h-1zM10 6h1v1h-1zM11 6h1v1h-1zM12 6h1v1h-1zM13 6h1v1h-1zM4 7h1v1h-1zM13 7h1v1h-1zM4 8h1v1h-1zM13 8h1v1h-1zM4 9h1v1h-1zM13 9h1v1h-1zM4 10h1v1h-1zM13 10h1v1h-1zM4 11h1v1h-1zM13 11h1v1h-1zM4 12h1v1h-1zM5 12h1v1h-1zM6 12h1v1h-1zM7 12h1v1h-1zM8 12h1v1h-1zM9 12h1v1h-1zM10 12h1v1h-1zM11 12h1v1h-1zM12 12h1v1h-1zM13 12h1v1h-1z" fill="#a39bb8"></path><path d="M5 7h1v1h-1zM6 7h1v1h-1zM7 7h1v1h-1zM8 7h1v1h-1zM9 7h1v1h-1zM10 7h1v1h-1zM11 7h1v1h-1zM12 7h1v1h-1zM5 8h1v1h-1zM12 8h1v1h-1zM5 9h1v1h-1zM12 9h1v1h-1zM5 10h1v1h-1zM12 10h1v1h-1zM5 11h1v1h-1zM6 11h1v1h-1zM7 11h1v1h-1zM8 11h1v1h-1zM9 11h1v1h-1zM10 11h1v1h-1zM11 11h1v1h-1zM12 11h1v1h-1z" fill="#2ee8c4"></path><path d="M6 8h1v1h-1zM7 8h1v1h-1zM8 8h1v1h-1zM9 8h1v1h-1zM10 8h1v1h-1zM11 8h1v1h-1zM6 9h1v1h-1zM11 9h1v1h-1zM6 10h1v1h-1zM7 10h1v1h-1zM8 10h1v1h-1zM9 10h1v1h-1zM10 10h1v1h-1zM11 10h1v1h-1z" fill="#06b6d4"></path><path d="M7 9h1v1h-1zM8 9h1v1h-1zM9 9h1v1h-1zM10 9h1v1h-1z" fill="#8b5cf6"></path><path d="M4 14h1v1h-1zM5 14h1v1h-1zM12 14h1v1h-1zM13 14h1v1h-1z" fill="#6e658a"></path></svg>