<?xml version="1.0" encoding="UTF-8"?>
<svg viewBox="0 0 16 16" shape-rendering="crispEdges" role="img" aria-label="story" style="display: block; image-rendering: pixelated;"><path d="M3 3h1v1h-1zM4 3h1v1h-1zM5 3h1v1h-1zM6 3h1v1h-1zM7 3h1v1h-1zM8 3h1v1h-1zM9 3h1v1h-1zM10 3h1v1h-1zM11 3h1v1h-1zM12 3h1v1h-1zM2 4h1v1h-1zM14 4h1v1h-1zM2 5h1v1h-1zM14 5h1v1h-1zM2 6h1v1h-1zM14 6h1v1h-1zM2 7h1v1h-1zM14 7h1v1h-1zM2 8h1v1h-1zM14 8h1v1h-1zM2 9h1v1h-1zM14 9h1v1h-1zM2 10h1v1h-1zM14 10h1v1h-1zM2 11h1v1h-1zM14 11h1v1h-1zM2 12h1v1h-1zM3 12h1v1h-1zM4 12h1v1h-1zM5 12h1v1h-1zM6 12h1v1h-1zM7 12h1v1h-1zM8 12h1v1h-1zM9 12h1v1h-1zM10 12h1v1h-1zM11 12h1v1h-1zM12 12h1v1h-1zM13 12h1v1h-1z" fill="#e9e5ef"></path><path d="M4 4h1v1h-1zM5 4h1v1h-1zM6 4h1v1h-1zM7 4h1v1h-1zM9 4h1v1h-1zM10 4h1v1h-1zM11 4h1v1h-1zM12 4h1v1h-1zM4 5h1v1h-1zM5 5h1v1h-1zM6 5h1v1h-1zM7 5h1v1h-1zM9 5h1v1h-1zM10 5h1v1h-1zM11 5h1v1h-1zM12 5h1v1h-1zM4 6h1v1h-1zM5 6h1v1h-1zM6 6h1v1h-1zM7 6h1v1h-1zM9 6h1v1h-1zM10 6h1v1h-1zM11 6h1v1h-1zM12 6h1v1h-1zM4 7h1v1h-1zM5 7h1v1h-1zM6 7h1v1h-1zM7 7h1v1h-1zM9 7h1v1h-1zM10 7h1v1h-1zM11 7h1v1h-1zM12 7h1v1h-1zM4 8h1v1h-1zM5 8h1v1h-1zM6 8h1v1h-1zM7 8h1v1h-1zM9 8h1v1h-1zM10 8h1v1h-1zM11 8h1v1h-1zM12 8h1v1h-1zM4 9h1v1h-1zM5 9h1v1h-1zM6 9h1v1h-1zM7 9h1v1h-1zM9 9h1v1h-1zM10 9h1v1h-1zM11 9h1v1h-1zM12 9h1v1h-1zM4 10h1v1h-1zM5 10h1v1h-1zM6 10h1v1h-1zM7 10h1v1h-1zM9 10h1v1h-1zM10 10h1v1h-1zM11 10h1v1h-1zM12 10h1v1h-1zM4 11h1v1h-1zM5 11h1v1h-1zM6 11h1v1h-1zM7 11h1v1h-1zM9 11h1v1h-1zM10 11h1v1h-1zM11 11h1v1h-1zM12 11h1v1h-1z" fill="#a39bb8"></path><path d="M2 13h1v1h-1zM13 13h1v1h-1z" fill="#8b5a3c"></path><path d="M3 13h1v1h-1zM4 13h1v1h-1zM5 13h1v1h-1zM6 13h1v1h-1zM7 13h1v1h-1zM8 13h1v1h-1zM9 13h1v1h-1zM10 13h1v1h-1zM11 13h1v1h-1zM12 13h1v1h-1z" fill="#5a3820"></path></svg>