<?xml version="1.0" encoding="UTF-8"?>
<svg viewBox="0 0 32 32" shape-rendering="crispEdges" role="img" aria-label="retroKids" style="display: block; image-rendering: pixelated;"><path d="M5 2h1v1h-1zM6 2h1v1h-1zM7 2h1v1h-1zM8 2h1v1h-1zM9 2h1v1h-1zM10 2h1v1h-1zM20 2h1v1h-1zM21 2h1v1h-1zM22 2h1v1h-1zM23 2h1v1h-1zM24 2h1v1h-1zM25 2h1v1h-1zM4 3h1v1h-1zM5 3h1v1h-1zM6 3h1v1h-1zM7 3h1v1h-1zM8 3h1v1h-1zM9 3h1v1h-1zM10 3h1v1h-1zM11 3h1v1h-1zM19 3h1v1h-1zM20 3h1v1h-1zM21 3h1v1h-1zM22 3h1v1h-1zM23 3h1v1h-1zM24 3h1v1h-1zM25 3h1v1h-1zM26 3h1v1h-1zM4 4h1v1h-1zM5 4h1v1h-1zM6 4h1v1h-1zM7 4h1v1h-1zM8 4h1v1h-1zM9 4h1v1h-1zM10 4h1v1h-1zM11 4h1v1h-1zM19 4h1v1h-1zM20 4h1v1h-1zM21 4h1v1h-1zM22 4h1v1h-1zM23 4h1v1h-1zM24 4h1v1h-1zM25 4h1v1h-1zM26 4h1v1h-1zM5 5h1v1h-1zM6 5h1v1h-1zM7 5h1v1h-1zM8 5h1v1h-1zM9 5h1v1h-1zM10 5h1v1h-1zM20 5h1v1h-1zM21 5h1v1h-1zM22 5h1v1h-1zM23 5h1v1h-1zM24 5h1v1h-1zM25 5h1v1h-1z" fill="#d4a574"></path><path d="M4 5h1v1h-1zM11 5h1v1h-1zM19 5h1v1h-1zM26 5h1v1h-1zM4 26h1v1h-1zM5 26h1v1h-1zM10 26h1v1h-1zM11 26h1v1h-1zM19 26h1v1h-1zM20 26h1v1h-1zM25 26h1v1h-1zM26 26h1v1h-1z" fill="#44403c"></path><path d="M3 6h1v1h-1zM4 6h1v1h-1zM5 6h1v1h-1zM6 6h1v1h-1zM7 6h1v1h-1zM8 6h1v1h-1zM9 6h1v1h-1zM10 6h1v1h-1zM11 6h1v1h-1zM12 6h1v1h-1zM18 6h1v1h-1zM19 6h1v1h-1zM20 6h1v1h-1zM21 6h1v1h-1zM22 6h1v1h-1zM23 6h1v1h-1zM24 6h1v1h-1zM25 6h1v1h-1zM26 6h1v1h-1zM27 6h1v1h-1zM3 7h1v1h-1zM5 7h1v1h-1zM11 7h1v1h-1zM12 7h1v1h-1zM18 7h1v1h-1zM20 7h1v1h-1zM25 7h1v1h-1zM26 7h1v1h-1zM27 7h1v1h-1zM3 8h1v1h-1zM4 8h1v1h-1zM5 8h1v1h-1zM6 8h1v1h-1zM7 8h1v1h-1zM8 8h1v1h-1zM9 8h1v1h-1zM10 8h1v1h-1zM11 8h1v1h-1zM12 8h1v1h-1zM18 8h1v1h-1zM19 8h1v1h-1zM20 8h1v1h-1zM21 8h1v1h-1zM22 8h1v1h-1zM23 8h1v1h-1zM24 8h1v1h-1zM25 8h1v1h-1zM26 8h1v1h-1zM27 8h1v1h-1zM3 9h1v1h-1zM4 9h1v1h-1zM5 9h1v1h-1zM6 9h1v1h-1zM7 9h1v1h-1zM10 9h1v1h-1zM11 9h1v1h-1zM12 9h1v1h-1zM18 9h1v1h-1zM19 9h1v1h-1zM20 9h1v1h-1zM21 9h1v1h-1zM22 9h1v1h-1zM25 9h1v1h-1zM26 9h1v1h-1zM27 9h1v1h-1zM4 10h1v1h-1zM5 10h1v1h-1zM6 10h1v1h-1zM7 10h1v1h-1zM8 10h1v1h-1zM9 10h1v1h-1zM10 10h1v1h-1zM11 10h1v1h-1zM19 10h1v1h-1zM20 10h1v1h-1zM21 10h1v1h-1zM22 10h1v1h-1zM23 10h1v1h-1zM24 10h1v1h-1zM25 10h1v1h-1zM26 10h1v1h-1zM5 11h1v1h-1zM6 11h1v1h-1zM7 11h1v1h-1zM8 11h1v1h-1zM9 11h1v1h-1zM10 11h1v1h-1zM20 11h1v1h-1zM21 11h1v1h-1zM22 11h1v1h-1zM23 11h1v1h-1zM24 11h1v1h-1zM25 11h1v1h-1zM4 21h1v1h-1zM5 21h1v1h-1zM6 21h1v1h-1zM7 21h1v1h-1zM8 21h1v1h-1zM9 21h1v1h-1zM10 21h1v1h-1zM11 21h1v1h-1zM19 21h1v1h-1zM20 21h1v1h-1zM21 21h1v1h-1zM22 21h1v1h-1zM23 21h1v1h-1zM24 21h1v1h-1zM25 21h1v1h-1zM26 21h1v1h-1zM4 23h1v1h-1zM5 23h1v1h-1zM10 23h1v1h-1zM11 23h1v1h-1zM19 23h1v1h-1zM20 23h1v1h-1zM25 23h1v1h-1zM26 23h1v1h-1zM4 24h1v1h-1zM5 24h1v1h-1zM10 24h1v1h-1zM11 24h1v1h-1zM19 24h1v1h-1zM20 24h1v1h-1zM25 24h1v1h-1zM26 24h1v1h-1z" fill="#f4c89d"></path><path d="M4 7h1v1h-1zM7 7h1v1h-1zM9 7h1v1h-1zM19 7h1v1h-1zM22 7h1v1h-1zM24 7h1v1h-1z" fill="#c08866"></path><path d="M6 7h1v1h-1zM8 7h1v1h-1zM10 7h1v1h-1zM21 7h1v1h-1zM23 7h1v1h-1zM8 9h1v1h-1zM9 9h1v1h-1zM23 9h1v1h-1zM24 9h1v1h-1z" fill="#0a0612"></path><path d="M4 12h1v1h-1zM5 12h1v1h-1zM6 12h1v1h-1zM7 12h1v1h-1zM8 12h1v1h-1zM9 12h1v1h-1zM10 12h1v1h-1zM11 12h1v1h-1zM3 13h1v1h-1zM4 13h1v1h-1zM5 13h1v1h-1zM6 13h1v1h-1zM7 13h1v1h-1zM8 13h1v1h-1zM9 13h1v1h-1zM10 13h1v1h-1zM11 13h1v1h-1zM12 13h1v1h-1zM2 14h1v1h-1zM3 14h1v1h-1zM4 14h1v1h-1zM5 14h1v1h-1zM6 14h1v1h-1zM7 14h1v1h-1zM8 14h1v1h-1zM9 14h1v1h-1zM10 14h1v1h-1zM11 14h1v1h-1zM12 14h1v1h-1zM13 14h1v1h-1zM2 15h1v1h-1zM3 15h1v1h-1zM4 15h1v1h-1zM5 15h1v1h-1zM6 15h1v1h-1zM7 15h1v1h-1zM8 15h1v1h-1zM9 15h1v1h-1zM10 15h1v1h-1zM11 15h1v1h-1zM12 15h1v1h-1zM13 15h1v1h-1zM2 16h1v1h-1zM3 16h1v1h-1zM4 16h1v1h-1zM5 16h1v1h-1zM8 16h1v1h-1zM9 16h1v1h-1zM10 16h1v1h-1zM11 16h1v1h-1zM12 16h1v1h-1zM13 16h1v1h-1zM2 17h1v1h-1zM3 17h1v1h-1zM4 17h1v1h-1zM9 17h1v1h-1zM10 17h1v1h-1zM11 17h1v1h-1zM12 17h1v1h-1zM13 17h1v1h-1zM2 18h1v1h-1zM3 18h1v1h-1zM4 18h1v1h-1zM9 18h1v1h-1zM10 18h1v1h-1zM11 18h1v1h-1zM12 18h1v1h-1zM13 18h1v1h-1zM2 19h1v1h-1zM3 19h1v1h-1zM4 19h1v1h-1zM5 19h1v1h-1zM6 19h1v1h-1zM7 19h1v1h-1zM8 19h1v1h-1zM9 19h1v1h-1zM10 19h1v1h-1zM11 19h1v1h-1zM12 19h1v1h-1zM13 19h1v1h-1zM3 20h1v1h-1zM4 20h1v1h-1zM5 20h1v1h-1zM6 20h1v1h-1zM7 20h1v1h-1zM8 20h1v1h-1zM9 20h1v1h-1zM10 20h1v1h-1zM11 20h1v1h-1zM12 20h1v1h-1z" fill="#60a5fa"></path><path d="M19 12h1v1h-1zM20 12h1v1h-1zM21 12h1v1h-1zM22 12h1v1h-1zM23 12h1v1h-1zM24 12h1v1h-1zM25 12h1v1h-1zM26 12h1v1h-1zM18 13h1v1h-1zM19 13h1v1h-1zM20 13h1v1h-1zM21 13h1v1h-1zM22 13h1v1h-1zM23 13h1v1h-1zM24 13h1v1h-1zM25 13h1v1h-1zM26 13h1v1h-1zM27 13h1v1h-1zM17 14h1v1h-1zM18 14h1v1h-1zM19 14h1v1h-1zM20 14h1v1h-1zM21 14h1v1h-1zM22 14h1v1h-1zM23 14h1v1h-1zM24 14h1v1h-1zM25 14h1v1h-1zM26 14h1v1h-1zM27 14h1v1h-1zM28 14h1v1h-1zM17 15h1v1h-1zM18 15h1v1h-1zM19 15h1v1h-1zM20 15h1v1h-1zM21 15h1v1h-1zM22 15h1v1h-1zM23 15h1v1h-1zM24 15h1v1h-1zM25 15h1v1h-1zM26 15h1v1h-1zM27 15h1v1h-1zM28 15h1v1h-1zM17 16h1v1h-1zM18 16h1v1h-1zM19 16h1v1h-1zM20 16h1v1h-1zM23 16h1v1h-1zM24 16h1v1h-1zM25 16h1v1h-1zM26 16h1v1h-1zM27 16h1v1h-1zM28 16h1v1h-1zM17 17h1v1h-1zM18 17h1v1h-1zM19 17h1v1h-1zM24 17h1v1h-1zM25 17h1v1h-1zM26 17h1v1h-1zM27 17h1v1h-1zM28 17h1v1h-1zM17 18h1v1h-1zM18 18h1v1h-1zM19 18h1v1h-1zM24 18h1v1h-1zM25 18h1v1h-1zM26 18h1v1h-1zM27 18h1v1h-1zM28 18h1v1h-1zM17 19h1v1h-1zM18 19h1v1h-1zM19 19h1v1h-1zM20 19h1v1h-1zM21 19h1v1h-1zM22 19h1v1h-1zM23 19h1v1h-1zM24 19h1v1h-1zM25 19h1v1h-1zM26 19h1v1h-1zM27 19h1v1h-1zM28 19h1v1h-1zM18 20h1v1h-1zM19 20h1v1h-1zM20 20h1v1h-1zM21 20h1v1h-1zM22 20h1v1h-1zM23 20h1v1h-1zM24 20h1v1h-1zM25 20h1v1h-1zM26 20h1v1h-1zM27 20h1v1h-1z" fill="#ff5a5a"></path><path d="M6 16h1v1h-1zM7 16h1v1h-1zM5 17h1v1h-1zM6 17h1v1h-1zM7 17h1v1h-1zM8 17h1v1h-1zM5 18h1v1h-1zM6 18h1v1h-1zM7 18h1v1h-1zM8 18h1v1h-1z" fill="#fbbf24"></path><path d="M21 16h1v1h-1zM22 16h1v1h-1zM20 17h1v1h-1zM21 17h1v1h-1zM22 17h1v1h-1zM23 17h1v1h-1zM20 18h1v1h-1zM21 18h1v1h-1zM22 18h1v1h-1zM23 18h1v1h-1z" fill="#34d399"></path><path d="M4 22h1v1h-1zM5 22h1v1h-1zM6 22h1v1h-1zM7 22h1v1h-1zM8 22h1v1h-1zM9 22h1v1h-1zM10 22h1v1h-1zM11 22h1v1h-1zM4 25h1v1h-1zM5 25h1v1h-1zM10 25h1v1h-1zM11 25h1v1h-1z" fill="#1e3a8a"></path><path d="M19 22h1v1h-1zM20 22h1v1h-1zM21 22h1v1h-1zM22 22h1v1h-1zM23 22h1v1h-1zM24 22h1v1h-1zM25 22h1v1h-1zM26 22h1v1h-1zM19 25h1v1h-1zM20 25h1v1h-1zM25 25h1v1h-1zM26 25h1v1h-1z" fill="#dc2626"></path></svg>