<svg xmlns="http://www.w3.org/2000/svg" id="Layer_1" viewBox="0 0 2880 1800"><defs><style>.st0{fill:#ea2de1}</style></defs><path d="M42.39 954.51V846.65c0-36.6 12.33-50.46 61.63-50.46h66.64v3.85h-66.64c-45.46 0-57.79 12.33-57.79 46.61v107.86c0 33.51 13.49 45.84 65.49 45.84h72.8v-73.57h3.86v77.42h-76.66c-56.63 0-69.34-13.87-69.34-49.69Z" class="st0"/><path d="M204.43 1020.25h-92.71c-52.72 0-85.39-11-85.39-65.74V846.65c0-47.86 21.78-66.51 77.68-66.51h82.69v35.95h-82.69c-41.74 0-41.74 9.58-41.74 30.56v107.86c0 19.21 0 29.79 49.44 29.79h56.75v-73.57h35.95v109.52Zm263.97-16.05H338.59V796.19H468.4v3.85H342.44v96.69h94.77v3.86h-94.77v99.77H468.4v3.86Z" class="st0"/><path d="M484.45 1020.25H322.54V780.14h161.91v35.95H358.49v64.59h94.77v35.95h-94.77v67.67h125.96zm181.16-220.21h-78.97v-3.85h161.78v3.85h-78.97v204.16h-3.85V800.04Z" class="st0"/><path d="M685.5 1020.25h-35.94V816.09h-78.97v-35.95h193.88v35.95H685.5zm303.26-91.94v75.89h-3.85V796.19h83.2c48.54 0 57.79 22.34 57.79 52.39v28.5c0 30.05-9.25 51.23-57.79 51.23zm79.35-3.84c45.46 0 53.93-19.65 53.93-47.39v-28.5c0-27.73-8.47-48.54-53.93-48.54h-79.35v124.43z" class="st0"/><path d="M1004.81 1020.25h-35.95V780.14h99.25c49.68 0 73.84 22.38 73.84 68.44v28.5c0 28.89-7.66 67.28-73.84 67.28h-63.3zm0-111.83h63.3c36.05 0 37.88-11.91 37.88-31.34v-28.5c0-20.21-2.55-32.49-37.88-32.49h-63.3zm260.89-112.23h3.86v204.16h134.05v-75.88h3.86v79.74h-141.76V796.2Z" class="st0"/><path d="M1423.51 1020.25h-173.86V780.14h35.96V984.3h101.95v-75.88h35.95zm276.29-82.31h-150.23v66.26h-3.85v-82.05c0-14.25 2.31-26.2 6.54-37.36l24.65-63.18c5.78-14.25 10.41-25.42 28.13-25.42h37.75c16.95 0 21.57 10.78 27.73 25.81l26.58 62.79c4.24 11.17 6.55 23.11 6.55 37.36v82.05h-3.86v-66.26Zm-150.23-3.84h150.23v-11.94c0-13.87-2.31-25.43-6.16-35.83l-26.58-62.79c-5.78-13.49-10.02-23.5-24.27-23.5h-37.75c-15.41 0-19.65 10.02-24.65 23.11l-24.65 63.18c-3.86 10.4-6.17 21.96-6.17 35.83z" class="st0"/><path d="M1719.71 1020.25h-35.95v-66.26h-118.13v66.26h-35.95v-98.1c0-15.5 2.48-29.58 7.59-43.05l24.71-63.33c6.15-15.16 14.46-35.64 43.08-35.64h37.75c27.92 0 36.39 20.67 42.58 35.77l26.51 62.63c5.34 14.02 7.82 28.11 7.82 43.62v98.1Zm-154.01-102.2h117.98c-.38-9.36-2.05-17.95-5.09-26.15l-26.31-62.1c-5.87-13.71-6.64-13.71-9.49-13.71h-37.75c-3.95 0-4.77 0-9.66 12.79l-24.69 63.28c-2.95 7.97-4.62 16.53-4.99 25.89m347.11 20.28v65.87h-3.86v-65.87h-3.85c-11.17 0-19.65-4.62-28.13-16.17l-37.36-52c-5.78-7.71-5.78-18.49-5.78-29.66v-44.3h3.85v44.3c0 10.78.38 20.41 5.39 28.12l37.37 52c6.93 10.4 15.79 13.87 24.65 13.87h10.4c9.63 0 17.33-3.86 25.04-13.87l38.52-52c5.39-6.94 5.39-17.33 5.39-28.12v-44.3h3.85v44.3c0 11.17.38 21.57-5.78 29.66l-38.52 52c-8.47 11.17-16.56 16.17-28.5 16.17h-2.7Z" class="st0"/><path d="M1928.85 1020.25h-35.95v-67.33c-11.06-2.82-20.42-9.76-28.86-21.26l-37.46-52.14c-8.79-11.73-8.79-26.23-8.79-39.03v-60.35h35.95v60.35c0 8.24.21 15.39 2.8 19.37l36.95 51.38c4.26 6.37 8.08 7.19 11.62 7.19h10.4c3.53 0 6.9-.57 12.32-7.61l38.34-51.77c2.24-2.89 2.24-11.95 2.24-18.56v-60.35h35.95v62.17c.02 11.99.05 25.59-9.05 37.55l-38.4 51.84c-6.21 8.19-14.69 17.21-28.05 20.92v67.62Zm191.94-16.05v-3.86h59.71V800.03h-59.71v-3.85h122.5v3.85h-58.94v200.31h58.94v3.86z" class="st0"/><path d="M2259.33 1020.25h-154.59V984.3h59.7V816.09h-59.7v-35.95h154.59v35.95h-58.93V984.3h58.93zm277.85-61.5V796.19h3.86v208.01h-3.86v-39.68l-145.61-163.33c-.77-.78-1.15-1.16-1.93-1.16s-.77.77-.77 1.16v203h-3.86V800.41c0-3.08 2.31-4.62 4.62-4.62s3.09.78 5.78 3.47l141.75 159.48Z" class="st0"/><path d="M2557.08 1020.25h-35.95v-49.61l-116.21-130.35v179.96h-35.95V800.42c0-11.59 9.08-20.67 20.67-20.67 8.96 0 13.68 4.72 17.13 8.17l.65.69 113.71 127.93V780.15h35.95v240.11Zm134.54-65.74V846.65c0-36.6 12.33-50.46 61.63-50.46h66.64v3.85h-66.64c-45.46 0-57.79 12.33-57.79 46.61v107.86c0 33.51 13.49 45.84 65.49 45.84h72.8v-73.57h3.86v77.42h-76.66c-56.63 0-69.34-13.87-69.34-49.69Z" class="st0"/><path d="M2853.66 1020.25h-92.71c-52.72 0-85.39-11-85.39-65.74V846.65c0-47.86 21.78-66.51 77.68-66.51h82.69v35.95h-82.69c-41.74 0-41.74 9.58-41.74 30.56v107.86c0 19.21 0 29.79 49.44 29.79h56.75v-73.57h35.95v109.52Z" class="st0"/></svg>