<svg xmlns="http://www.w3.org/2000/svg" viewBox="0 0 2880 1800"><path d="m1705.78 777.28 119.93-55.96h175.89v129.33h-126.04v-68.66h-44.68V895.8h130.27v61.61h-130.27v121.34h-125.1V777.29Zm328.26-55.97h126.04v295.82h44.21V721.31h126.51v357.42h-296.76zm329.68 0h125.1v296.29h108.17v61.14h-233.27V721.32Zm265.71 0h125.1v296.29h108.17v61.14h-233.27V721.32Z" style="fill:#1ae2c0"/><path d="M17.3 721.26h73.37v357.42H17.3zm101.58 56.91 71.96-56.9h101.58v357.42h-73.84V782.4h-25.87v296.29h-73.84V778.17Zm201.75-56.91h71.96v296.29h25.87V721.26h73.37v302.87l-69.6 54.56H320.65V721.27Zm199.41 55.97 71.02-55.96h101.11V850.6H618.8v-68.66h-25.87v113.81h75.72v61.61h-75.72v59.73h99.23v61.61H520.03V777.24Zm200.34.94 71.96-56.9h101.58v357.42h-73.84V782.4h-25.87v296.29h-73.84V778.17Zm240.78 4.23h-39.03v-61.14h152.84v61.14h-38.09v296.29h-75.72zm142.03 0 73.84-61.14h98.76v296.76l-72.43 60.67h-100.17zm99.7 234.68V782.4h-25.87v234.68zM1304 779.58l71.49-58.31h100.64v159.9l-40.91 45.15h40.91v152.38h-73.37V958.3h-25.4v120.4h-73.37V779.59Zm98.76 111.93V782.87h-25.4v108.64zm101.58 125.57h97.82v-61.14h-97.82V721.27h71.96v173.07h25.87V721.27h73.84v295.82l-71.49 61.61h-100.17v-61.61Z" style="fill:#fff"/></svg>