<svg xmlns="http://www.w3.org/2000/svg" viewBox="0 0 2880 1800"><path d="m1523.4 861.49 37.63-17.56h55.19v40.58h-39.55v-21.54h-14.02v35.71h40.88v19.33h-40.88v38.07h-39.25zm103-17.56h39.55v92.82h13.87v-92.82h39.7v112.15h-93.12zm103.44 0h39.25v92.97h33.94v19.18h-73.19zm83.38 0h39.25v92.97h33.94v19.18h-73.19z" style="fill:#1ae2c0"/><path d="M993.59 843.92h23.02v112.15h-23.02zm31.87 17.85 22.58-17.86h31.88v112.15h-23.17v-92.97h-8.12v92.97h-23.17v-94.3Zm63.31-17.85h22.58v92.97h8.12v-92.97h23.02v95.03l-21.84 17.12h-31.88zm62.57 17.56 22.28-17.56h31.73v40.58h-23.02v-21.54h-8.12v35.71h23.76V918h-23.76v18.74h31.14v19.33h-54.01zm62.86.29 22.58-17.86h31.88v112.15h-23.17v-92.97h-8.12v92.97h-23.17v-94.3Zm75.55 1.33h-12.25v-19.18h47.96v19.18h-11.95v92.97h-23.76zm44.57 0 23.17-19.18h30.99v93.12l-22.73 19.04h-31.43v-92.97Zm31.28 73.64V863.1h-8.12v73.64zm31.73-74.53 22.43-18.3h31.58v50.17l-12.84 14.17h12.84v47.81h-23.02v-37.78h-7.97v37.78h-23.02zm30.99 35.13v-34.09h-7.97v34.09zm31.87 39.4h30.69v-19.18h-30.69v-73.64h22.58v54.3h8.12v-54.3h23.17v92.82l-22.43 19.33h-31.43v-19.33Z" style="fill:#320b5e"/></svg>